%TF.GenerationSoftware,KiCad,Pcbnew,(5.1.6)-1*%
%TF.CreationDate,2022-08-11T17:02:39-07:00*%
%TF.ProjectId,Starboard_LED,53746172-626f-4617-9264-5f4c45442e6b,rev?*%
%TF.SameCoordinates,Original*%
%TF.FileFunction,Copper,L1,Top*%
%TF.FilePolarity,Positive*%
%FSLAX46Y46*%
G04 Gerber Fmt 4.6, Leading zero omitted, Abs format (unit mm)*
G04 Created by KiCad (PCBNEW (5.1.6)-1) date 2022-08-11 17:02:39*
%MOMM*%
%LPD*%
G01*
G04 APERTURE LIST*
%TA.AperFunction,SMDPad,CuDef*%
%ADD10R,2.500000X3.800000*%
%TD*%
%TA.AperFunction,SMDPad,CuDef*%
%ADD11R,0.260000X0.900000*%
%TD*%
%TA.AperFunction,Conductor*%
%ADD12C,0.254000*%
%TD*%
G04 APERTURE END LIST*
D10*
%TO.P,J2,1*%
%TO.N,Net-(D1-Pad1)*%
X154750000Y-111500000D03*
%TD*%
%TO.P,J1,1*%
%TO.N,Net-(D1-Pad2)*%
X160250000Y-111500000D03*
%TD*%
D11*
%TO.P,D1,2*%
%TO.N,Net-(D1-Pad2)*%
X157800000Y-105000000D03*
%TO.P,D1,1*%
%TO.N,Net-(D1-Pad1)*%
X157220000Y-105000000D03*
%TD*%
D12*
%TO.N,Net-(D1-Pad1)*%
G36*
X157123000Y-94905712D02*
G01*
X157123000Y-113346783D01*
X156901689Y-113389239D01*
X156862415Y-113400842D01*
X156822954Y-113411904D01*
X156817095Y-113414231D01*
X156817089Y-113414233D01*
X156817084Y-113414236D01*
X156508456Y-113539304D01*
X156519375Y-113503310D01*
X156529550Y-113400000D01*
X156527000Y-111758750D01*
X156395250Y-111627000D01*
X154877000Y-111627000D01*
X154877000Y-113795250D01*
X155008750Y-113927000D01*
X155953063Y-113929429D01*
X155794838Y-114084698D01*
X155768518Y-114116132D01*
X155741802Y-114147148D01*
X155738205Y-114152334D01*
X155538816Y-114444187D01*
X155519103Y-114480135D01*
X155498920Y-114515749D01*
X155496399Y-114521535D01*
X155357495Y-114846558D01*
X155355184Y-114853871D01*
X154577004Y-114669640D01*
X153420360Y-114241341D01*
X152324534Y-113675275D01*
X151921289Y-113400000D01*
X152970450Y-113400000D01*
X152980625Y-113503310D01*
X153010760Y-113602650D01*
X153059695Y-113694202D01*
X153125552Y-113774448D01*
X153205798Y-113840305D01*
X153297350Y-113889240D01*
X153396690Y-113919375D01*
X153500000Y-113929550D01*
X154491250Y-113927000D01*
X154623000Y-113795250D01*
X154623000Y-111627000D01*
X153104750Y-111627000D01*
X152973000Y-111758750D01*
X152970450Y-113400000D01*
X151921289Y-113400000D01*
X151305859Y-112979878D01*
X150379529Y-112165524D01*
X149559347Y-111244348D01*
X148857542Y-110230082D01*
X148527013Y-109600000D01*
X152970450Y-109600000D01*
X152973000Y-111241250D01*
X153104750Y-111373000D01*
X154623000Y-111373000D01*
X154623000Y-109204750D01*
X154877000Y-109204750D01*
X154877000Y-111373000D01*
X156395250Y-111373000D01*
X156527000Y-111241250D01*
X156529550Y-109600000D01*
X156519375Y-109496690D01*
X156489240Y-109397350D01*
X156440305Y-109305798D01*
X156374448Y-109225552D01*
X156294202Y-109159695D01*
X156202650Y-109110760D01*
X156103310Y-109080625D01*
X156000000Y-109070450D01*
X155008750Y-109073000D01*
X154877000Y-109204750D01*
X154623000Y-109204750D01*
X154491250Y-109073000D01*
X153500000Y-109070450D01*
X153396690Y-109080625D01*
X153297350Y-109110760D01*
X153205798Y-109159695D01*
X153125552Y-109225552D01*
X153059695Y-109305798D01*
X153010760Y-109397350D01*
X152980625Y-109496690D01*
X152970450Y-109600000D01*
X148527013Y-109600000D01*
X148284574Y-109137845D01*
X147848986Y-107983919D01*
X147557276Y-106785522D01*
X147413787Y-105560497D01*
X147420661Y-104327120D01*
X147577795Y-103103768D01*
X147882847Y-101908688D01*
X148331263Y-100759705D01*
X148916368Y-99673921D01*
X149629437Y-98667538D01*
X150459836Y-97755558D01*
X151395186Y-96951578D01*
X152421552Y-96267577D01*
X153523613Y-95713763D01*
X154684965Y-95298380D01*
X155888278Y-95027628D01*
X157115616Y-94905542D01*
X157123000Y-94905712D01*
G37*
X157123000Y-94905712D02*
X157123000Y-113346783D01*
X156901689Y-113389239D01*
X156862415Y-113400842D01*
X156822954Y-113411904D01*
X156817095Y-113414231D01*
X156817089Y-113414233D01*
X156817084Y-113414236D01*
X156508456Y-113539304D01*
X156519375Y-113503310D01*
X156529550Y-113400000D01*
X156527000Y-111758750D01*
X156395250Y-111627000D01*
X154877000Y-111627000D01*
X154877000Y-113795250D01*
X155008750Y-113927000D01*
X155953063Y-113929429D01*
X155794838Y-114084698D01*
X155768518Y-114116132D01*
X155741802Y-114147148D01*
X155738205Y-114152334D01*
X155538816Y-114444187D01*
X155519103Y-114480135D01*
X155498920Y-114515749D01*
X155496399Y-114521535D01*
X155357495Y-114846558D01*
X155355184Y-114853871D01*
X154577004Y-114669640D01*
X153420360Y-114241341D01*
X152324534Y-113675275D01*
X151921289Y-113400000D01*
X152970450Y-113400000D01*
X152980625Y-113503310D01*
X153010760Y-113602650D01*
X153059695Y-113694202D01*
X153125552Y-113774448D01*
X153205798Y-113840305D01*
X153297350Y-113889240D01*
X153396690Y-113919375D01*
X153500000Y-113929550D01*
X154491250Y-113927000D01*
X154623000Y-113795250D01*
X154623000Y-111627000D01*
X153104750Y-111627000D01*
X152973000Y-111758750D01*
X152970450Y-113400000D01*
X151921289Y-113400000D01*
X151305859Y-112979878D01*
X150379529Y-112165524D01*
X149559347Y-111244348D01*
X148857542Y-110230082D01*
X148527013Y-109600000D01*
X152970450Y-109600000D01*
X152973000Y-111241250D01*
X153104750Y-111373000D01*
X154623000Y-111373000D01*
X154623000Y-109204750D01*
X154877000Y-109204750D01*
X154877000Y-111373000D01*
X156395250Y-111373000D01*
X156527000Y-111241250D01*
X156529550Y-109600000D01*
X156519375Y-109496690D01*
X156489240Y-109397350D01*
X156440305Y-109305798D01*
X156374448Y-109225552D01*
X156294202Y-109159695D01*
X156202650Y-109110760D01*
X156103310Y-109080625D01*
X156000000Y-109070450D01*
X155008750Y-109073000D01*
X154877000Y-109204750D01*
X154623000Y-109204750D01*
X154491250Y-109073000D01*
X153500000Y-109070450D01*
X153396690Y-109080625D01*
X153297350Y-109110760D01*
X153205798Y-109159695D01*
X153125552Y-109225552D01*
X153059695Y-109305798D01*
X153010760Y-109397350D01*
X152980625Y-109496690D01*
X152970450Y-109600000D01*
X148527013Y-109600000D01*
X148284574Y-109137845D01*
X147848986Y-107983919D01*
X147557276Y-106785522D01*
X147413787Y-105560497D01*
X147420661Y-104327120D01*
X147577795Y-103103768D01*
X147882847Y-101908688D01*
X148331263Y-100759705D01*
X148916368Y-99673921D01*
X149629437Y-98667538D01*
X150459836Y-97755558D01*
X151395186Y-96951578D01*
X152421552Y-96267577D01*
X153523613Y-95713763D01*
X154684965Y-95298380D01*
X155888278Y-95027628D01*
X157115616Y-94905542D01*
X157123000Y-94905712D01*
%TO.N,Net-(D1-Pad2)*%
G36*
X158348682Y-94933939D02*
G01*
X159569107Y-95112400D01*
X160758678Y-95438260D01*
X161899670Y-95906665D01*
X162975079Y-96510633D01*
X163968856Y-97241150D01*
X164866207Y-98087342D01*
X165653741Y-99036583D01*
X166319722Y-100074723D01*
X166854222Y-101186291D01*
X167249270Y-102354707D01*
X167498981Y-103562563D01*
X167599629Y-104791849D01*
X167549716Y-106024238D01*
X167349984Y-107241354D01*
X167003414Y-108425052D01*
X166515166Y-109557699D01*
X165892524Y-110622399D01*
X165144765Y-111603287D01*
X164283047Y-112485727D01*
X163320205Y-113256577D01*
X162270601Y-113904337D01*
X161149878Y-114419354D01*
X159969771Y-114795537D01*
X159647621Y-114864012D01*
X159515912Y-114545405D01*
X159496644Y-114509258D01*
X159477878Y-114472837D01*
X159474419Y-114467564D01*
X159474416Y-114467559D01*
X159474412Y-114467555D01*
X159278509Y-114173360D01*
X159252562Y-114141614D01*
X159227102Y-114109560D01*
X159222682Y-114105055D01*
X159047910Y-113929427D01*
X159991250Y-113927000D01*
X160123000Y-113795250D01*
X160123000Y-111627000D01*
X160377000Y-111627000D01*
X160377000Y-113795250D01*
X160508750Y-113927000D01*
X161500000Y-113929550D01*
X161603310Y-113919375D01*
X161702650Y-113889240D01*
X161794202Y-113840305D01*
X161874448Y-113774448D01*
X161940305Y-113694202D01*
X161989240Y-113602650D01*
X162019375Y-113503310D01*
X162029550Y-113400000D01*
X162027000Y-111758750D01*
X161895250Y-111627000D01*
X160377000Y-111627000D01*
X160123000Y-111627000D01*
X158604750Y-111627000D01*
X158473000Y-111758750D01*
X158470450Y-113400000D01*
X158480625Y-113503310D01*
X158492183Y-113541412D01*
X158208467Y-113422497D01*
X158169326Y-113410426D01*
X158130345Y-113397805D01*
X158124170Y-113396499D01*
X157877000Y-113346031D01*
X157877000Y-109600000D01*
X158470450Y-109600000D01*
X158473000Y-111241250D01*
X158604750Y-111373000D01*
X160123000Y-111373000D01*
X160123000Y-109204750D01*
X160377000Y-109204750D01*
X160377000Y-111373000D01*
X161895250Y-111373000D01*
X162027000Y-111241250D01*
X162029550Y-109600000D01*
X162019375Y-109496690D01*
X161989240Y-109397350D01*
X161940305Y-109305798D01*
X161874448Y-109225552D01*
X161794202Y-109159695D01*
X161702650Y-109110760D01*
X161603310Y-109080625D01*
X161500000Y-109070450D01*
X160508750Y-109073000D01*
X160377000Y-109204750D01*
X160123000Y-109204750D01*
X159991250Y-109073000D01*
X159000000Y-109070450D01*
X158896690Y-109080625D01*
X158797350Y-109110760D01*
X158705798Y-109159695D01*
X158625552Y-109225552D01*
X158559695Y-109305798D01*
X158510760Y-109397350D01*
X158480625Y-109496690D01*
X158470450Y-109600000D01*
X157877000Y-109600000D01*
X157877000Y-94923076D01*
X158348682Y-94933939D01*
G37*
X158348682Y-94933939D02*
X159569107Y-95112400D01*
X160758678Y-95438260D01*
X161899670Y-95906665D01*
X162975079Y-96510633D01*
X163968856Y-97241150D01*
X164866207Y-98087342D01*
X165653741Y-99036583D01*
X166319722Y-100074723D01*
X166854222Y-101186291D01*
X167249270Y-102354707D01*
X167498981Y-103562563D01*
X167599629Y-104791849D01*
X167549716Y-106024238D01*
X167349984Y-107241354D01*
X167003414Y-108425052D01*
X166515166Y-109557699D01*
X165892524Y-110622399D01*
X165144765Y-111603287D01*
X164283047Y-112485727D01*
X163320205Y-113256577D01*
X162270601Y-113904337D01*
X161149878Y-114419354D01*
X159969771Y-114795537D01*
X159647621Y-114864012D01*
X159515912Y-114545405D01*
X159496644Y-114509258D01*
X159477878Y-114472837D01*
X159474419Y-114467564D01*
X159474416Y-114467559D01*
X159474412Y-114467555D01*
X159278509Y-114173360D01*
X159252562Y-114141614D01*
X159227102Y-114109560D01*
X159222682Y-114105055D01*
X159047910Y-113929427D01*
X159991250Y-113927000D01*
X160123000Y-113795250D01*
X160123000Y-111627000D01*
X160377000Y-111627000D01*
X160377000Y-113795250D01*
X160508750Y-113927000D01*
X161500000Y-113929550D01*
X161603310Y-113919375D01*
X161702650Y-113889240D01*
X161794202Y-113840305D01*
X161874448Y-113774448D01*
X161940305Y-113694202D01*
X161989240Y-113602650D01*
X162019375Y-113503310D01*
X162029550Y-113400000D01*
X162027000Y-111758750D01*
X161895250Y-111627000D01*
X160377000Y-111627000D01*
X160123000Y-111627000D01*
X158604750Y-111627000D01*
X158473000Y-111758750D01*
X158470450Y-113400000D01*
X158480625Y-113503310D01*
X158492183Y-113541412D01*
X158208467Y-113422497D01*
X158169326Y-113410426D01*
X158130345Y-113397805D01*
X158124170Y-113396499D01*
X157877000Y-113346031D01*
X157877000Y-109600000D01*
X158470450Y-109600000D01*
X158473000Y-111241250D01*
X158604750Y-111373000D01*
X160123000Y-111373000D01*
X160123000Y-109204750D01*
X160377000Y-109204750D01*
X160377000Y-111373000D01*
X161895250Y-111373000D01*
X162027000Y-111241250D01*
X162029550Y-109600000D01*
X162019375Y-109496690D01*
X161989240Y-109397350D01*
X161940305Y-109305798D01*
X161874448Y-109225552D01*
X161794202Y-109159695D01*
X161702650Y-109110760D01*
X161603310Y-109080625D01*
X161500000Y-109070450D01*
X160508750Y-109073000D01*
X160377000Y-109204750D01*
X160123000Y-109204750D01*
X159991250Y-109073000D01*
X159000000Y-109070450D01*
X158896690Y-109080625D01*
X158797350Y-109110760D01*
X158705798Y-109159695D01*
X158625552Y-109225552D01*
X158559695Y-109305798D01*
X158510760Y-109397350D01*
X158480625Y-109496690D01*
X158470450Y-109600000D01*
X157877000Y-109600000D01*
X157877000Y-94923076D01*
X158348682Y-94933939D01*
%TD*%
M02*
